<?xml version="1.0" encoding="UTF-8" standalone="no"?>
<svg width="178px" height="158px" viewBox="0 0 178 158" version="1.1" xmlns="http://www.w3.org/2000/svg" xmlns:xlink="http://www.w3.org/1999/xlink" xmlns:sketch="http://www.bohemiancoding.com/sketch/ns">
    <!-- Generator: Sketch 3.3.2 (12043) - http://www.bohemiancoding.com/sketch -->
    <title>react-europe</title>
    <desc>Created with Sketch.</desc>
    <defs></defs>
    <g id="iOS" stroke="none" stroke-width="1" fill="none" fill-rule="evenodd" sketch:type="MSPage">
        <g id="1.1-Start-QR" sketch:type="MSArtboardGroup" transform="translate(-286.000000, -181.000000)">
            <g id="react-europe" sketch:type="MSLayerGroup" transform="translate(286.000000, 181.000000)">
                <path d="M89,47 C110.29133,47 130.070431,50.0645122 144.983782,55.2144146 C162.952254,61.4192195 174,70.824878 174,79.3414634 C174,88.2166585 162.291286,98.2082683 142.99582,104.621073 C128.407421,109.469439 109.211212,112 89,112 C68.2782846,112 48.65597,109.624488 33.9066757,104.567488 C15.2421486,98.1683171 4,88.0470244 4,79.3414634 C4,70.894 14.5483059,61.5612683 32.2642125,55.3656585 C47.2331973,50.1310976 67.500675,47 89,47 L89,47 Z" id="path3779" stroke-opacity="0.94117647" stroke="#FFFFFF" stroke-width="8" sketch:type="MSShapeGroup"></path>
                <path d="M60.564852,62.8921808 C71.1753372,44.4894324 83.6724321,28.9164204 95.5410775,18.5852963 C109.84122,6.13786249 123.449848,1.26278054 130.786909,5.49476926 C138.432992,9.90495694 141.20599,24.9906815 137.114604,44.8549768 C134.021232,59.8735219 126.63498,77.7230651 116.56276,95.1925555 C106.236071,113.103286 94.4109406,128.882882 82.7037433,139.118441 C67.8893,152.07114 53.5673996,156.758246 46.0673138,152.432269 C38.7898498,148.234343 36.006446,134.479591 39.497762,116.088197 C42.4476591,100.548617 49.8506239,81.4750205 60.564852,62.8921808 L60.564852,62.8921808 Z" id="path3781" stroke-opacity="0.94117647" stroke="#FFFFFF" stroke-width="8" sketch:type="MSShapeGroup"></path>
                <path d="M60.4875751,95.1312902 C49.8750388,76.7333007 42.6466517,58.113432 39.6335921,42.6582623 C36.0032027,24.0371311 38.5700113,9.79961471 45.8804783,5.55234675 C53.4985095,1.12612352 67.9115704,6.26059296 83.0334755,19.7362081 C94.466812,29.9243489 106.207084,45.2497996 116.28154,62.714823 C126.610413,80.6207645 134.352036,98.7612098 137.363208,114.028587 C141.173796,133.348496 138.089349,148.110253 130.616609,152.451891 C123.365579,156.664757 110.096921,152.204447 95.9483404,139.985306 C83.993906,129.661134 71.2042053,113.709182 60.4875751,95.1312902 L60.4875751,95.1312902 Z" id="path3783" stroke-opacity="0.94117647" stroke="#FFFFFF" stroke-width="8" sketch:type="MSShapeGroup"></path>
                <g id="layer1" transform="translate(67.000000, 57.000000)" fill="#FFFF00" sketch:type="MSShapeGroup">
                    <path d="M28.6651617,38.4938795 L34.8896598,38.4938795 L29.8539536,42.2117279 L31.7774107,36.1963819 L33.7008852,42.2117279 L28.6651617,38.4938795 Z" id="path3039"></path>
                    <path d="M35.635984,31.4782487 L41.8604821,31.4782487 L36.8247758,35.196097 L38.748233,29.180751 L40.6716902,35.196097 L35.635984,31.4782487 Z" id="path3041"></path>
                    <path d="M15.8465183,38.4938795 L9.62201851,38.4938795 L14.6577265,42.2117279 L12.7342693,36.1963819 L10.8108121,42.2117279 L15.8465183,38.4938795 Z" id="path3063"></path>
                    <path d="M8.87569432,31.4782487 L2.65119623,31.4782487 L7.68691972,35.196097 L5.76344527,29.180751 L3.8399881,35.196097 L8.87569432,31.4782487 Z" id="path3065"></path>
                    <path d="M25.3710858,41.1141754 L19.1465877,41.1141754 L24.1822939,44.8320237 L22.2588368,38.8166777 L20.3353796,44.8320237 L25.3710858,41.1141754 Z" id="path3069"></path>
                    <path d="M15.8465183,5.02171305 L9.62201851,5.02171305 L14.6577265,8.73956143 L12.7342693,2.7242154 L10.8108121,8.73956143 L15.8465183,5.02171305 Z" id="path3051"></path>
                    <path d="M8.87569432,12.1218696 L2.65119623,12.1218696 L7.68691972,15.839718 L5.76344527,9.82437192 L3.8399881,15.839718 L8.87569432,12.1218696 Z" id="path3053"></path>
                    <path d="M6.32194912,21.7577963 L0.097451018,21.7577963 L5.13315724,25.4756447 L3.20970007,19.4602986 L1.28624289,25.4756447 L6.32194912,21.7577963 Z" id="path3055"></path>
                    <path d="M28.6651617,5.02171305 L34.8896598,5.02171305 L29.8539536,8.73956143 L31.7774107,2.7242154 L33.7008852,8.73956143 L28.6651617,5.02171305 Z" id="path3014"></path>
                    <path d="M35.635984,12.1218696 L41.8604821,12.1218696 L36.8247758,15.839718 L38.748233,9.82437192 L40.6716902,15.839718 L35.635984,12.1218696 Z" id="path3016"></path>
                    <path d="M38.1897292,21.7577963 L44.4142273,21.7577963 L39.378521,25.4756447 L41.3019782,19.4602986 L43.2254527,25.4756447 L38.1897292,21.7577963 Z" id="path3018"></path>
                    <path d="M19.1405942,2.40141719 L25.3650923,2.40141719 L20.3293861,6.11926557 L22.2528432,0.103919541 L24.1763177,6.11926557 L19.1405942,2.40141719 Z" id="path3020"></path>
                </g>
            </g>
        </g>
    </g>
</svg>