<?xml version="1.0" encoding="UTF-8" standalone="no"?>
<svg width="228px" height="228px" viewBox="0 0 228 228" version="1.1" xmlns="http://www.w3.org/2000/svg" xmlns:xlink="http://www.w3.org/1999/xlink" xmlns:sketch="http://www.bohemiancoding.com/sketch/ns">
    <!-- Generator: Sketch 3.3.2 (12043) - http://www.bohemiancoding.com/sketch -->
    <title>thinkmill-logo</title>
    <desc>Created with Sketch.</desc>
    <defs>
        <linearGradient x1="50%" y1="0%" x2="100%" y2="47.4304609%" id="linearGradient-1">
            <stop stop-color="#FF7D39" offset="0%"></stop>
            <stop stop-color="#FF325E" offset="100%"></stop>
        </linearGradient>
        <linearGradient x1="50%" y1="0%" x2="100%" y2="100%" id="linearGradient-2">
            <stop stop-color="#FE774D" offset="0%"></stop>
            <stop stop-color="#FC4D6E" offset="100%"></stop>
        </linearGradient>
    </defs>
    <g id="Page-1" stroke="none" stroke-width="1" fill="none" fill-rule="evenodd" sketch:type="MSPage">
        <g id="thinkmill-logo" sketch:type="MSLayerGroup" transform="translate(14.000000, 14.000000)">
            <circle id="Oval-1" stroke="url(#linearGradient-1)" stroke-width="14" fill-opacity="0" fill="#FFFFFF" sketch:type="MSShapeGroup" cx="100" cy="100" r="100"></circle>
            <path d="M67.5092632,120.190607 C62.6234382,120.190607 60.7668246,117.943128 60.7668246,112.373287 L60.7668246,87.553296 L70.4407583,87.553296 L70.4407583,79.0519604 L60.7668246,79.0519604 L60.7668246,66.6419647 L49.6271435,66.6419647 L49.6271435,79.0519604 L41.3212408,79.0519604 L41.3212408,87.553296 L49.6271435,87.553296 L49.6271435,114.034468 C49.6271435,124.881 54.219819,129.278242 64.6754847,129.278242 C66.7275312,129.278242 69.2681603,128.887376 70.9293408,128.398794 L70.9293408,119.702025 C70.1476088,119.995174 68.7795778,120.190607 67.5092632,120.190607 L67.5092632,120.190607 Z M135.910814,77.8793623 C128.386644,77.8793623 123.598535,81.2017234 119.983025,86.8692805 C117.442396,81.0062904 112.165704,77.8793623 105.325549,77.8793623 C99.4625592,77.8793623 95.0653167,80.2245584 91.5475226,85.012667 L91.3520896,85.012667 L91.3520896,79.0519604 L80.700991,79.0519604 L80.700991,128.691943 L91.8406721,128.691943 L91.8406721,102.113055 C91.8406721,92.5368376 95.6516157,86.8692805 102.296338,86.8692805 C108.061611,86.8692805 111.188539,90.9733735 111.188539,98.0089617 L111.188539,128.691943 L122.328221,128.691943 L122.328221,101.917622 C122.328221,92.4391211 126.236881,86.8692805 132.783886,86.8692805 C138.353727,86.8692805 141.773804,90.3870745 141.773804,99.1815597 L141.773804,128.691943 L152.913486,128.691943 L152.913486,98.1066782 C152.913486,84.7195174 146.464196,77.8793623 135.910814,77.8793623 L135.910814,77.8793623 Z" id="tm-copy" fill="url(#linearGradient-2)" sketch:type="MSShapeGroup"></path>
        </g>
    </g>
</svg>