<?xml version="1.0" encoding="UTF-8" standalone="no"?>
<svg width="96px" height="96px" viewBox="0 0 96 96" version="1.1" xmlns="http://www.w3.org/2000/svg" xmlns:xlink="http://www.w3.org/1999/xlink" xmlns:sketch="http://www.bohemiancoding.com/sketch/ns">
    <!-- Generator: Sketch 3.3.2 (12043) - http://www.bohemiancoding.com/sketch -->
    <title>touchstonejs</title>
    <desc>Created with Sketch.</desc>
    <defs></defs>
    <g id="iOS" stroke="none" stroke-width="1" fill="none" fill-rule="evenodd" sketch:type="MSPage">
        <g id="5.0-About" sketch:type="MSArtboardGroup" transform="translate(-125.000000, -491.000000)" fill="#FFFFFF">
            <g id="Group" sketch:type="MSLayerGroup" transform="translate(125.000000, 491.000000)">
                <path d="M93.6114286,13.7161905 C91.5657143,8.09809524 87.14,3.67238095 81.5219048,1.62666667 C76.3752381,0 71.5952381,0 62.0342857,0 L33.2038095,0 C23.6428571,0 18.8628571,0 13.7171429,1.62666667 C8.09809524,3.67238095 3.67238095,8.09809524 1.62761905,13.7161905 C0,18.8628571 0,23.6428571 0,33.2038095 L0,62.0342857 C0,71.5952381 0,76.3752381 1.62761905,81.5219048 C3.67238095,87.14 8.09809524,91.5657143 13.7171429,93.6104762 C18.8628571,95.2380952 23.6428571,95.2380952 33.2038095,95.2380952 L62.0342857,95.2380952 C71.5952381,95.2380952 76.3752381,95.2380952 81.5219048,93.6104762 C87.14,91.5657143 91.5657143,87.14 93.6114286,81.5219048 C95.2380952,76.3752381 95.2380952,71.5952381 95.2380952,62.0342857 L95.2380952,33.2038095 C95.2380952,23.6428571 95.2380952,18.8628571 93.6114286,13.7161905 L93.6114286,13.7161905 Z M71.4152381,30.0790476 L53.8933333,30.0790476 L53.8933333,80.1942857 L41.3495238,80.1942857 L41.3495238,30.0790476 L23.7961905,30.0790476 L23.7961905,17.5619048 L71.4152381,17.5619048 L71.4152381,30.0790476 L71.4152381,30.0790476 Z" id="touchstonejs" sketch:type="MSShapeGroup"></path>
            </g>
        </g>
    </g>
</svg>